/* XPM */
static char *d95a8ea6f3304a4ff562b20949ff5b59UIQXM91EnXRFZyzj[] = {
/* columns rows colors chars-per-pixel */
"32 32 142 2 ",
"   c #111617",
".  c #121718",
"X  c #151C1C",
"o  c #191E1D",
"O  c #1B201F",
"+  c #161F20",
"@  c #181F20",
"#  c #172122",
"$  c #1B2324",
"%  c #1F2827",
"&  c #1C2728",
"*  c #1E2A2B",
"=  c #1F2E30",
"-  c #212625",
";  c #222827",
":  c #222C2D",
">  c #222D2D",
",  c #222C2C",
"<  c #212D2E",
"1  c #202D2F",
"2  c #212C2C",
"3  c #242C2C",
"4  c #242D2D",
"5  c #262D2C",
"6  c #242E2E",
"7  c #242E2F",
"8  c #262E2E",
"9  c #232B2B",
"0  c #292E2E",
"q  c #292F2E",
"w  c #282F2F",
"e  c #292E2D",
"r  c #28302F",
"t  c #202D30",
"y  c #212F30",
"u  c #222F30",
"i  c #222F32",
"p  c #242F31",
"a  c #242F30",
"s  c #203031",
"d  c #203032",
"f  c #233032",
"g  c #223133",
"h  c #253030",
"j  c #243031",
"k  c #243032",
"l  c #263133",
"z  c #253233",
"x  c #273232",
"c  c #203135",
"v  c #223234",
"b  c #233234",
"n  c #263234",
"m  c #273537",
"M  c #253233",
"N  c #283131",
"B  c #293131",
"V  c #2D3232",
"C  c #283436",
"Z  c #283536",
"A  c #2A3536",
"S  c #2F3536",
"D  c #2D3636",
"F  c #2B3333",
"G  c #223438",
"H  c #26373B",
"J  c #273739",
"K  c #253539",
"L  c #2A3739",
"P  c #2B3739",
"I  c #29373A",
"U  c #2C3739",
"Y  c #2A3739",
"T  c #253A3F",
"R  c #273B3F",
"E  c #26393C",
"W  c #29383B",
"Q  c #2B383A",
"!  c #2B393B",
"~  c #2C3839",
"^  c #2C383A",
"/  c #2C393B",
"(  c #2D393B",
")  c #2A393C",
"_  c #293A3D",
"`  c #2B3A3D",
"'  c #2B3A3E",
"]  c #2A3B3E",
"[  c #2E3A3D",
"{  c #2A3C3F",
"}  c #2C3C3F",
"|  c #2E3C3F",
" . c #2B3A3D",
".. c #333635",
"X. c #333836",
"o. c #303B3D",
"O. c #303C3E",
"+. c #343D3E",
"@. c #373E3E",
"#. c #333B3C",
"$. c #393D3D",
"%. c #2B3D40",
"&. c #2B3F43",
"*. c #2C3E41",
"=. c #2D3E41",
"-. c #2C3E42",
";. c #2D3E42",
":. c #2C3D41",
">. c #303F41",
",. c #323F41",
"<. c #2F4044",
"1. c #2F4247",
"2. c #2D4144",
"3. c #2D4349",
"4. c #2F4348",
"5. c #304042",
"6. c #304145",
"7. c #324245",
"8. c #334345",
"9. c #314246",
"0. c #334347",
"q. c #344244",
"w. c #334143",
"e. c #394142",
"r. c #394344",
"t. c #30464A",
"y. c #35474B",
"u. c #33464A",
"i. c #35494D",
"p. c #3A4F54",
"a. c #385057",
"s. c #434746",
"d. c #494D4C",
"f. c #515452",
"g. c #616666",
"h. c #6B6E6C",
"j. c #6C7272",
"k. c #757B7B",
"l. c #848989",
"z. c #898E8E",
"x. c #8E9190",
"c. c #979B9B",
/* pixels */
"# X & d * # h $ $ =.+.$.$ ; ; & * ; % $ + * y * * -.< % Y 6.e.Y ",
"y * c y * & %.; & %.S V i * & & # & % * & < h * * ] * % y ^ e ' ",
"* - ; % # # * # @ $ o o : $ & y = * * & $ o X o o # # % # X o 5 ",
"! % + X o $ + # $ $ $ @ < : Y 0.0.* %.] ; # o # $ # $ * * < ; U ",
"<.; * & 5 % * & * * * : h % B D %.c 3.%.: & & ; 7 * * * = * : K ",
"p $ & % e e % % X X # : = # .   X + & $ @ + @ - 7 < - o X X 7 6.",
"+ # % $ < H Y % X + # %.>.; & & X + + + + & % : ! 2.h # & # G t.",
"& * = 7 U >.n $ & & & %.-.% ; * + & # + # * ; 7 ^ ^ * % * % d 2.",
"& % % $ $ $ o - - $ - @ o o o X X X $ & - o $ @ X X $ - r e % X ",
"6.p X X o . . $ #.U n o X $ o X # $ <.y.n . o o X X X 5 q.+.A & ",
"%.y # % @ . X # ' ' n $ * : @ @ & & -.] < @ $ @   . # 7 ' ' h c ",
"& & # @ @ X X @ % & @ X @ @ o o X # $ # @ + + X X X O # @ % # # ",
"X t p % + $ : & o     . . o $ - $ $ X X & n % $ # 7 7 * X X X # ",
"& y y & & & A p @ . . o + $ - - - % @ @ & : & & - 7 h p o # $ % ",
"$ $ $ $ & & $ + o   . X o @ @ @ - O X X + @ $ # % $ + @ X X @ % ",
"- B n V @ $ + y V 5 5 e ..B B B - O O O - S X.% # + $ U ....e ..",
"5 +.$...- ; % ' ,.X.5 V #.S +.S - % $ O e $...5 & & ; 6.q.#.e ..",
"; n B - % # % A X.: @ $ - - 5 : $ $ o O ; 7 ; - $ $ - U D 7 % & ",
"V 7 ; - e * o o . . & = $ o o o O . . 5 B - - e 7 % o . . # y n ",
"y.6.>.^ Y G $ o . X C >.B @ % & o o o e t.-.U B Y y # X o & %.<.",
"U | A - - c - X . X : : - $ $ + O O o $ F ! ; % < r O X X # B p ",
"7 : & ; 7 ; B 7 - @ o o . o   o B 7 % O * % $ 5 7 5 r 7 - - o $ ",
"] %.n Y ] n G ] I $ @ X X X o o n ! * % ! c A m ! < H ] K * % # ",
"c y p &.H & = H K & $ @ X @ X $ % * & & * * h &.K * c E E * * % ",
"& @ # & % # # $ $ $ @ $ O 5 : 5 $ # O O X X O % & # $ & * - % : ",
"& # & X + + X X $ & $ * p 7 Y n - * - # X & X X + @ o X & * < Y ",
"* * & #.- $ # # * & ; c n & y - < % X # & & $ $ $ $ $ % * * A E ",
"; ; 7 s...- ; $ X & n n ; % @ $ % * & & & X O $ o @ o o # : D ' ",
"D j.l.f.h.z.z.+.$ %.u.u.h ] p d ^ u.i.+.$ & % ; - $ % % % ] a.p.",
"B k.z.d.g.c.c.e.& ] &.%.h A ! B h %.2.H & ; - - - % * * % K u.<.",
"- X.#.V B B D % $ p : n * o # - * * b h $ - - % # $ % # % B n ^ ",
"+.F B r.r.S 7 ' < @ X X % ; ^ % O X X * D ; B @.@.V h ' p $ # $ "
};
