/* XPM */
static char *_779699f515f434ef6b0d57211951c49sVQ9wVWkphDn6tCd[] = {
/* columns rows colors chars-per-pixel */
"32 32 60 1 ",
"  c #0E1613",
". c #0F1915",
"X c #111614",
"o c #131B16",
"O c #141D1A",
"+ c #191F1B",
"@ c #16221B",
"# c #19241D",
"$ c #1B281F",
"% c #162221",
"& c #1B2522",
"* c #172A24",
"= c #1C2A23",
"- c #1E2B2A",
"; c #1E3126",
": c #1F322B",
"> c #232723",
", c #212B25",
"< c #232D2B",
"1 c #223126",
"2 c #293427",
"3 c #24332C",
"4 c #2A332C",
"5 c #243A2E",
"6 c #2A3A2E",
"7 c #253432",
"8 c #2A3532",
"9 c #263A33",
"0 c #2B3C34",
"q c #263739",
"w c #2A3738",
"e c #263938",
"r c #2A3A3A",
"t c #323735",
"y c #313B35",
"u c #353C3B",
"i c #30402F",
"p c #2A4135",
"a c #2D4439",
"s c #2F483A",
"d c #33413B",
"f c #2D3F41",
"g c #2D4143",
"h c #314343",
"j c #384543",
"k c #324649",
"l c #344C4B",
"z c #394F52",
"x c #424844",
"c c #494E4B",
"v c #515551",
"b c #616765",
"n c #6B6E6C",
"m c #6B7271",
"M c #747B7A",
"N c #848A89",
"B c #888D8C",
"V c #8C908D",
"C c #949A97",
"Z c #969B98",
/* pixels */
"O.#;*O=##w0y#=$@$@@@o%=*&0,&wad3",
"-$=<#*9*&e24=#@@@@#$#&<*$w*&<529",
"*#$&+O-%+@o+,@&=;*$$+oOoo@%%@O+>",
"3#oooOOO@@O+<=7ap;:5&+Oo@@@&*$&w",
"w&&&,$&#*&*,3#125;p5*%&-=&&*=$=7",
"=%&-<,&#o.O==@oXoo#@O@+&,<=ooX,p",
"O@&&<qw&oO#56$@@.@@.@&-<rf3@%#:a",
"*&:<rg8#%@*50@$#o@@O@-<<rr,%*#;e",
"%&=&#%++&##oooXo..@@@@#@oO+><,#o",
"0=oOo X+y83oo@oo@@pa1Xoo .O<u03$",
"5*O@O  +rq3@$$o@@$i5*@@@ .o<rr:;",
"$#@@O..@&=Oo@@oo @@@o@o@Xo%&%#@@",
".*1@@@-=+. X.o+o@@oo$1@@O-<<O.O@",
"#;$###33%OXOo#$@@@oo@$$@#<<3%+@#",
"@@@@$$@@OXXoo@@+#oooo@@@#@OOOO@@",
"$111@o.$4><>4,,<++o@#26@@oO48444",
">6y2##@80644t208$###162$$@#da04t",
"$11$@@@36>+$=$>,+@o+$=$$@@&72,%&",
"1$$#,#O+XX@*Oooo+oX#,#$,>##XXO=3",
"sp0973%+Xo;61O@#++o1aw4<2;#OO#5p",
"603,-<&+XO&=#@@O++O+39<&-<&oO#,;",
",,&<<&<<&+XooX o44=O=>&&<<<<&#OO",
"9q<793:e8#Oooo+#8r-#77778=q99&#@",
";-7r5*-qq%#OoOo%&<%@=-795-7q9*$#",
"@+&&%OO%&@O+#$=,&%OoX%&&@@+%-&#,",
"O@&OOO..&%@=<=32&=$OX%+Xo.oo&==q",
"%&*u#OOO#@#-3#=#=#oO%&%+@@@@*$39",
"*=<x4$>Oo#:3=%#O#=%@%+%+o@#oo*2w",
"<mNvnVBto9kk7q3=9ss9%&->#$##@5lz",
"<MBcbZZy@9af7q81<rp3&-<>>#*%@5kg",
"$tut438#+-<7>%###-;;+>><+@#O#13r",
"047jd3<0-oOO&<5$o.o#4<7uy33w,##&"
};
