/* XPM */
static char *_4c0e10a568e4e7ef8fe5bedcafbb08aG9cOcsz4ULseG5GL[] = {
/* columns rows colors chars-per-pixel */
"32 32 133 2 ",
"   c #17160F",
".  c #171610",
"X  c #1E1D15",
"o  c #211F16",
"O  c #1F2017",
"+  c #232116",
"@  c #25241A",
"#  c #29271B",
"$  c #27281E",
"%  c #2C2A1D",
"&  c #322D1E",
"*  c #35301F",
"=  c #39321F",
"-  c #272A21",
";  c #2D2C21",
":  c #322E22",
">  c #353224",
",  c #3A3525",
"<  c #3D3825",
"1  c #353429",
"2  c #393629",
"3  c #37382A",
"4  c #3D3A2A",
"5  c #423B26",
"6  c #483F25",
"7  c #433D2C",
"8  c #483F29",
"9  c #423E30",
"0  c #46412D",
"q  c #4A422D",
"w  c #51472E",
"e  c #55492E",
"r  c #5A4C2D",
"t  c #464231",
"y  c #4A4432",
"u  c #4E4834",
"i  c #44443A",
"p  c #494638",
"a  c #4D4A3A",
"s  c #504730",
"d  c #534B34",
"f  c #594E34",
"g  c #544D39",
"h  c #5C5033",
"j  c #585037",
"k  c #5D5134",
"l  c #5F5135",
"z  c #5C5236",
"x  c #56513E",
"c  c #56503C",
"v  c #595238",
"b  c #5B523B",
"n  c #5D543A",
"m  c #58513C",
"M  c #5B553D",
"N  c #5E553D",
"B  c #5B533C",
"V  c #645636",
"C  c #675837",
"Z  c #60563E",
"A  c #66593B",
"S  c #61593F",
"D  c #63583D",
"F  c #6A5B3A",
"G  c #6F5F3E",
"H  c #6B5D3C",
"J  c #72603D",
"K  c #494A42",
"L  c #524E41",
"P  c #585343",
"I  c #5B5441",
"U  c #5A5543",
"Y  c #5D5640",
"T  c #5D5744",
"R  c #5D5641",
"E  c #5D5845",
"W  c #5E5945",
"Q  c #5B594A",
"!  c #615841",
"~  c #635A42",
"^  c #645A40",
"/  c #675D41",
"(  c #635B47",
")  c #665D46",
"_  c #645A42",
"`  c #685E43",
"'  c #6B5F45",
"]  c #6A5E44",
"[  c #625B48",
"{  c #635D48",
"}  c #645D49",
"|  c #605E54",
" . c #6E6245",
".. c #6F6346",
"X. c #6D6246",
"o. c #6C634B",
"O. c #736240",
"+. c #776541",
"@. c #776644",
"#. c #706446",
"$. c #706448",
"%. c #726549",
"&. c #736748",
"*. c #72674B",
"=. c #776A4B",
"-. c #77694C",
";. c #776B4E",
":. c #76694C",
">. c #796C4D",
",. c #7A6C4E",
"<. c #7C6E4F",
"1. c #7A6C4E",
"2. c #656255",
"3. c #726A54",
"4. c #726A53",
"5. c #7B6E51",
"6. c #7C7051",
"7. c #7F7D72",
"8. c #84704B",
"9. c #807252",
"0. c #817457",
"q. c #867655",
"w. c #807255",
"e. c #877B5D",
"r. c #90805C",
"t. c #8E8674",
"y. c #898578",
"u. c #908F89",
"i. c #949083",
"p. c #9E9C92",
"a. c #A8A59C",
"s. c #B3AD9E",
"d. c #B7B1A4",
/* pixels */
"* @ 4 N j & k d , I E a > d d q $.D 5 = & 4 d u q 8.J q p N x 7 ",
"f q u M 7 q +.C 4 g p 4 t t < y m b w e 5 7 j 7 5 F h > 4 y 1 t ",
"d 4 > 4 ; & 0 * @ @ @ @ : ; ; 3 d 7 7 7 & o + o + # # # @ @ $ # ",
"^ 2 # + @ % % % 0 > 1 ; 4 ; 7 *.q.d =.>.7 & # # * = & l q < 2 d ",
"e.m 0 q u u h w ' d u t y ; 7 ` &.d 9.0.d < 8 q d V q  .j q 4 7 ",
"{ t , 4 0 u s < : $ > 4 7 + . X X o % 2 & % & % < q & + o o 7 S ",
"$ > q 5 t p P ; @ $ , >.-., 7 > o % @ + , e e 7 ( T 7 @ & # N r.",
", d @.H X.4.P > 7 7 7 >.' 2 / g % < * % 6 J V 0 } [ < , q > d <.",
"> 4 f 0 $ : ; % 0 4 % : # # % & # o ; : , < 7 o o $ # 7 p 1 ; # ",
"/ u 0 u 2 O ; 9 x a t + > g % # s > ] ;.g 7 j y : # p 9 ! g 7 2 ",
"6.c u v u , u p a E a 7 ^ $.< q l 2 B *.j 2 s f 3 y g 4 g ) p D ",
"u 2 ; 0 t > j 3 ; 9 1 > 7 > # # : o # , # # & 5 % 7 7 + - 3 : 2 ",
"+ @ @ @ @ % 4 9 - - 3 u 9 % 7 5 8 : o o o # o o # : 9 9 ; 1 y d ",
"3 0 4 ; 0 0 c $.p 9 m p 4 q l q 8 2 ; % = , # < 8 5 Z ' 4 8 j 7 ",
"& 4 * * q = & > ; - 7 4 ; & < & , % X o & & # 5 , # # : - ; 7 4 ",
"0 u 0 d @ + O < p 4 : y N m 0 y > 5 w 7 7 y d , o o o g a 8 3 j ",
"g o.{ [ e 0 5 ( o.! 2 d ! -.$.>.e d F w y o.L e 6 6 > *.' ! 7 j ",
"7 a p 7 6 7 5 u T a @ : 7 q 7 b , e w & : 9 3 5 = 5 % g P 9 # : ",
"4 2 > % 0 < # $ X X & 7 # X o # : < 8 , < < ; 7 8 : # o o + 7 d ",
"5.-.I B ' M d N 7 ; Z -.p ; q q , 7 b g <.o.7 g ' q n b 4 : ' *.",
"m D a 7 m D 7 u 7 > 7 d : ; 5 > : q > & d b 4 7 N y 0 q < % q d ",
"p 4 4 y 7 4 y u 3 @ o + : 7 2 , , & + : p > 7 7 7 > d d 2 + o + ",
"3.} ( *.{ u ` >.' & > ; p g ! d e r 6 u o.g o.' B 7  .<.D & % # ",
"I R R >.N > q *.^ % 2 ; 8 1 ; ; 7 e 8 7 d g ! -.d ; d =.Z & = % ",
"@ ; : 1 % . X ; ; # o o o o o - : , % X o ; ; : #   o & & % + # ",
"@ > 3 O - - @ @ 7 9 7 d 2 - - 5 , q s # o & # o + + X + 5 7 7 f ",
"> 0 > i 1 1 - - 1 7 5 B 9 : 2 : 5 5 o # , 5 # ; % % + + > > q D ",
"% : 1 K 4 ; - O o : 1 4 : o # o ; ; ; # % o o o + o X X o : > 7 ",
"1 y.p.| 7.p.u.i : 9 ( l 2 f 8 , 7 P ( I > l 7 > 5 & # # # 7 ( ! ",
"9 i.s.2.t.d.a.Q 4 L ,.( 5 f Z 7 > g ! u > _ ! 8 C w 5 7 & d >.-.",
"> p L p 4 9 3 - o 5 9 a ; ; ; o ; 4 9 9 > 5 y : & : o + + 2 s n ",
"w.4.1 a L 8 g g ; o - ; : 7 l ; - @ o 5 *.9 > 9 9 5 g d : o @ ; "
};
