/* XPM */
static char *_4f54e653d44478cd7a96cfef53a89bbnZZHGAr3rrFldSVq[] = {
/* columns rows colors chars-per-pixel */
"32 32 139 2 ",
"   c #1D140E",
".  c #1E1710",
"X  c #1F1912",
"o  c #23160E",
"O  c #2B160D",
"+  c #25180F",
"@  c #2B180F",
"#  c #33160B",
"$  c #33190E",
"%  c #3B1A0D",
"&  c #221710",
"*  c #241A13",
"=  c #2B1C14",
"-  c #2D1F18",
";  c #331D13",
":  c #3B1D12",
">  c #262017",
",  c #2D2017",
"<  c #2D2119",
"1  c #342116",
"2  c #3C2115",
"3  c #33231A",
"4  c #3B241A",
"5  c #3B281E",
"6  c #352B23",
"7  c #3B2D25",
"8  c #3D352E",
"9  c #44190A",
"0  c #461A0A",
"q  c #401C0F",
"w  c #401D0F",
"e  c #431C0E",
"r  c #431B0E",
"t  c #481C0D",
"y  c #4B1C0C",
"u  c #491D0E",
"i  c #4C1D0D",
"p  c #4E1D0C",
"a  c #4C1F0F",
"s  c #4C1E0E",
"d  c #531D0C",
"f  c #5D1E0A",
"g  c #431D10",
"h  c #411E10",
"j  c #421E11",
"k  c #431F12",
"l  c #451F10",
"z  c #471F10",
"x  c #431E10",
"c  c #481F10",
"v  c #491F10",
"b  c #621E09",
"n  c #5B210E",
"m  c #59210F",
"M  c #5D220F",
"N  c #5F220E",
"B  c #452113",
"V  c #432114",
"C  c #412216",
"Z  c #462215",
"A  c #462417",
"S  c #462517",
"D  c #432215",
"F  c #4C2213",
"G  c #4B2516",
"H  c #4C2314",
"J  c #40261B",
"K  c #46261A",
"L  c #45271B",
"P  c #40271C",
"I  c #41271C",
"U  c #422619",
"Y  c #4B2719",
"T  c #4C2718",
"R  c #4D2618",
"E  c #41281D",
"W  c #412A1F",
"Q  c #46281D",
"!  c #43291D",
"~  c #4E291C",
"^  c #4C2A1D",
"/  c #562110",
"(  c #542312",
")  c #542313",
"_  c #512414",
"`  c #502717",
"'  c #532414",
"]  c #5B2210",
"[  c #5D2715",
"{  c #5B2513",
"}  c #512718",
"|  c #542818",
" . c #502B1D",
".. c #562B1C",
"X. c #572C1C",
"o. c #532B1D",
"O. c #582919",
"+. c #5B2B1B",
"@. c #6A250F",
"#. c #642512",
"$. c #622511",
"%. c #692612",
"&. c #652815",
"*. c #6C2813",
"=. c #6E2812",
"-. c #692A16",
";. c #662D1A",
":. c #6B2D19",
">. c #6B2F1C",
",. c #6C311E",
"<. c #432B20",
"1. c #422B22",
"2. c #452B20",
"3. c #462C21",
"4. c #442B20",
"5. c #482C20",
"6. c #4B2E22",
"7. c #4C2F23",
"8. c #4B2C21",
"9. c #423026",
"0. c #483025",
"q. c #483026",
"w. c #4E3429",
"e. c #563023",
"r. c #5F3222",
"t. c #473E36",
"y. c #4E453C",
"u. c #55473E",
"i. c #5A4D44",
"p. c #73645C",
"a. c #756C65",
"s. c #796860",
"d. c #90736A",
"f. c #92817A",
"g. c #908B86",
"h. c #948E8A",
"j. c #9B9692",
"k. c #A68980",
"l. c #A29995",
/* pixels */
"- * 1 F % + 4 3 * 2 Q <.* : : ; s g , 1 - = H t = ^ 4 < 4 0.0.4 ",
"W 4 4 } r = J 3 = J W 1 = $ @ % 9 u 1 4 1 = Y B 1 5 4 , 1 3.3 3 ",
"4 - = 1 @ * - + o @ o   & & = ; : % @ 1 * X & * * & & + O = > > ",
"} = * * X > & o % # : = > * 3 O.#.% d [ 2 , < * , - > 9 0 u 2 7 ",
":.1 4 I 4 3 < , y g : - - . 1 / m r =.-.C 1 4 4 3 1 = t t r 1 3 ",
"_ ; 1 = 3 3 * @ # o O ; &   o o o o ; ; = = * , 3 , = @ o + 2 T ",
"* , - = 2 I I > * . = ] ] o c ;   = & & = ; ; 1 T 0.5 * = > l =.",
", 1 5 2 Y r.L @ > = ; M m $ / A + , - = , 2 3 ; o.e.- , 1 < C $.",
", 3 ; = = = o * = - = # O & @ o & . * = = = ; & + + * = 3 3 = $ ",
"X.2 4 4 - & & = 5 W 1 O # j ; . * = R ..D 3 <.3 = * - 3 q.3.4 r ",
"&.A 3 3 ; * 3 - 5 K J % i y O = = = R &.k - 3 3 * 3 3 < W T J F ",
"% ; * < 3 & - = & ; @ @ $ O & * * X = ; O o & < = * - & o ; = = ",
"= * & & & = : ; = = * - 6 * = * = > * * = +   * * ; Z : = 6 - 4 ",
"- 3 < > < 1 | [ ; < 3 - - - 6 - > 3 - = = = * , - : | O.< 3 4 3 ",
"* 3 = = 3 1 $ $ & . - ; * * - * = * . . = @ & - 3 = O @ . * 3 ; ",
"= C ; 2 & & + * = ; @ : H c : : - * * & ; 1 4 ; & & = - ; 4 ; G ",
"; o.8.U ; - - L } A ; F X.$.{ / : 4 - @ : 7.2.1 - 1 = } X.H ; { ",
"- U P ; = - ; k Z $   @ C c : c ; - @ * ; 2 1 ; = ; = J J ; + ; ",
"1 : ; @ : = = = *   o = & & * * = * 4 1 : ; - ; ; - - = * * ; 1 ",
",.>.7.k _ k 7 8.; * D } 3 - 3 - * - 5.^ >.+.L k / ; 8.8.; = _ +.",
"` _ Q ; : j ; ; * * k } = = = & * = & @ H H 2 ; r 2 3 ; = = H +.",
"2 ; ; : : ; k % O * = & = - 6 = = o o = ; @ % ; 1 1 D % = * = = ",
"..R y ] H ; d b v = = * ; 4 w.q.= ; = ; | k d ) G ; f f a ; - * ",
"D D q ] ' @ y @.v @ = * - = * > & - = # k : g { F = / @.F - 1 = ",
"& = & = @ & o ; = & & * *   X X & * * X + @ + O $   * : - * > , ",
"* - = . * & . & 3 = & ; $   * * & > 5 * & , + X * & X * 4 < - u ",
"< 3 = 8 < - & * , - * % $ & * & & > X * 3 1 * = = > * * 3 3 ; r ",
"= > < i.8 > < X . = - + o X & X & & . * >   * > * * & X & > , 1 ",
"< s.f.i.a.h.g.8 * ; H V * = = * 1 W ! J + # % 1 , , * > * 1 T Y ",
"3 d.k.u.p.j.j.t.= D $./ = > 4 > = 5 ^ C $ d a 1 2 , > 3 > 2 &.$.",
"= 9.w.6 6 7 6 * * = ; g o X & * = = 4 1 @ 1 C * = = * & * ; % / ",
"] : < <.2 ; = ; * o o o X * 2 , O O + $ l = < 5 1 3 @ = > * o = "
};
